<svg width="120" height="120" viewBox="0 0 120 120" fill="none" xmlns="http://www.w3.org/2000/svg">
<path opacity="0.3" d="M90 60C90 43.5 76.5 30 60 30C43.5 30 30 43.5 30 60C30 73 38.5 84 50 88.5V105C50 108 52 110 55 110H65C68 110 70 108 70 105V88.5C81.5 84 90 73 90 60Z" fill="#F5CC3E"/>
<path d="M105 55H120V65H105V55ZM0 55H15V65H0V55ZM55 0H65V15H55V0Z" fill="#F5CC3E"/>
<path d="M88.1094 95.3486L95.1803 88.2774L105.787 98.8839L98.7162 105.955L88.1094 95.3486Z" fill="#F5CC3E"/>
<path d="M14.2148 21.1074L21.2858 14.0362L31.8926 24.6426L24.8216 31.7138L14.2148 21.1074Z" fill="#F5CC3E"/>
<path d="M88.2852 24.8174L98.8901 14.2091L105.962 21.2791L95.3573 31.8873L88.2852 24.8174Z" fill="#F5CC3E"/>
<path d="M14.043 98.7085L24.6511 88.1034L31.7211 95.1754L21.113 105.781L14.043 98.7085Z" fill="#F5CC3E"/>
<path d="M65 115H55C49.5 115 45 110.5 45 105V91.5C33 86 25 73.5 25 60C25 40.5 40.5 25 60 25C79.5 25 95 40.5 95 60C95 73.5 87 86 75 91.5V105C75 110.5 70.5 115 65 115ZM60 35C46 35 35 46 35 60C35 70.5 41.5 80 51.5 83.5L55 84.5V105H65V84.5L68.5 83.5C78.5 80 85 70.5 85 60C85 46 74 35 60 35ZM0 55H15V65H0V55Z" fill="#F5CC3E"/>
</svg>
